<svg width="22" height="22" viewBox="0 0 22 22" fill="none" xmlns="http://www.w3.org/2000/svg">
<path d="M0.605713 21.2422L2.08174 15.7239C1.24309 14.2143 0.806995 12.5202 0.806995 10.801C0.806995 5.182 5.37766 0.611328 10.9966 0.611328C16.6156 0.611328 21.1863 5.182 21.1863 10.801C21.1863 16.42 16.6156 20.9906 10.9966 20.9906C9.31095 20.9906 7.64202 20.5629 6.14922 19.7578L0.605713 21.2422ZM6.42598 17.6863L6.77821 17.896C8.06135 18.6592 9.52061 19.0617 10.9966 19.0617C15.5505 19.0617 19.2574 15.3549 19.2574 10.801C19.2574 6.24709 15.5505 2.54024 10.9966 2.54024C6.44275 2.54024 2.73589 6.24709 2.73589 10.801C2.73589 12.3022 3.15522 13.7866 3.94355 15.0865L4.16161 15.4387L3.33972 18.5166L6.43436 17.6863H6.42598Z" fill="white"/>
<path fill-rule="evenodd" clip-rule="evenodd" d="M14.7873 12.2181C14.368 11.9665 13.8228 11.6898 13.328 11.891C12.9506 12.0504 12.7074 12.6374 12.4642 12.9394C12.3384 13.0987 12.1874 13.1155 11.9946 13.04C10.5688 12.4697 9.47859 11.522 8.69864 10.2137C8.56446 10.0125 8.58963 9.85311 8.74897 9.66022C8.98379 9.38347 9.2857 9.06478 9.34441 8.68739C9.4115 8.30999 9.23539 7.87389 9.07605 7.53843C8.87477 7.11071 8.65671 6.4985 8.229 6.25529C7.83483 6.02885 7.31487 6.15465 6.96263 6.43979C6.3588 6.9346 6.06527 7.70616 6.07366 8.47772C6.07366 8.69577 6.09881 8.91382 6.15752 9.12348C6.28332 9.62668 6.50976 10.1047 6.77813 10.5492C6.9794 10.8847 7.18907 11.2201 7.4239 11.5304C8.18707 12.562 9.13475 13.4593 10.225 14.1386C10.7701 14.4741 11.3656 14.7676 11.9778 14.9689C12.6655 15.1953 13.2777 15.4302 14.0157 15.2876C14.7873 15.1366 15.5505 14.6586 15.8608 13.9122C15.953 13.6941 15.9949 13.4426 15.9446 13.2077C15.8356 12.7213 15.1898 12.4362 14.7957 12.2013L14.7873 12.2181Z" fill="white"/>
</svg>
