<svg width="742" height="656" viewBox="0 0 742 656" fill="none" xmlns="http://www.w3.org/2000/svg">
<g filter="url(#filter0_f_65_637)">
<circle cx="352.5" cy="266.5" r="189.5" fill="white"/>
</g>
<path d="M271.397 234.307H459.681C471.196 234.307 476.762 248.181 468.349 255.916L365.539 350.456L262.73 255.916C254.317 248.179 259.881 234.307 271.397 234.307Z" fill="#00ADA9"/>
<path d="M252.651 234.307H440.935C452.45 234.307 458.015 248.181 449.603 255.916L346.793 350.456L243.984 255.916C235.571 248.179 241.134 234.307 252.651 234.307Z" fill="#474143" stroke="white" stroke-width="2" stroke-miterlimit="10" stroke-linecap="square"/>
<path d="M422.226 234.307H202.438L328.367 350.456L430.867 255.916C439.255 248.179 433.708 234.307 422.226 234.307Z" fill="#E7BA74" stroke="white" stroke-width="2" stroke-miterlimit="10" stroke-linecap="square"/>
<path d="M269.928 222.504V234.869H255.493V249.294H243.118V234.869H228.683V222.504H243.118V208.079H255.493V222.504H269.928Z" fill="#474143" stroke="#FBFBFB" stroke-width="2" stroke-miterlimit="10"/>
<path d="M235.574 128.261C232.608 129.379 229.885 130.92 227.55 133.078C223.826 136.514 222.073 140.946 221.191 145.804C221.111 146.241 221.275 146.737 220.684 147.196C220.366 146.544 220.001 145.93 219.765 145.272C217.909 140.096 214.077 137.057 209.059 135.285C208.12 134.954 207.16 134.679 206.21 134.379C206.008 134.11 205.812 133.839 205.608 133.562C207.549 132.467 209.335 131.169 210.879 129.541C213.764 126.483 215.121 122.872 214.893 118.68C214.821 117.359 214.989 116.015 214.247 114.388C215.457 115.266 215.522 116.269 215.915 117.06C217.764 120.793 220.233 123.925 224.073 125.759C226.88 127.103 229.849 127.725 232.958 127.718C233.798 127.718 234.635 127.748 235.477 127.755C235.504 127.924 235.531 128.087 235.565 128.255L235.574 128.261Z" fill="#E7BA74"/>
<path d="M164.133 182.378C167.9 180.418 170.619 177.599 171.646 173.353C172.194 171.093 171.935 168.849 171.435 166.244C171.877 166.869 172.169 167.131 172.292 167.467C174.954 174.525 180.288 177.539 187.574 177.625C187.775 177.887 187.968 178.143 188.163 178.407C184.53 179.936 181.535 182.225 179.524 185.677C178.075 188.168 177.345 190.89 177.016 194.121C176.618 193.445 176.323 193.069 176.171 192.647C174.4 187.532 170.636 184.725 165.566 183.423C165.267 183.351 164.979 183.254 164.678 183.174C164.492 182.91 164.313 182.651 164.126 182.386L164.133 182.378Z" fill="#E7BA74"/>
<path d="M188.169 178.398C187.974 178.134 187.774 177.879 187.58 177.616C188.177 177.518 188.781 177.42 189.38 177.33C189.424 177.603 189.469 177.876 189.513 178.148C189.064 178.229 188.616 178.31 188.169 178.398Z" fill="#EBD58D"/>
<path d="M189.513 178.147C189.469 177.875 189.424 177.602 189.38 177.329C189.592 177.287 189.815 177.213 190.026 177.209C190.32 177.199 190.662 177.257 190.62 177.649C190.6 177.804 190.346 177.966 190.17 178.048C189.972 178.133 189.735 178.119 189.521 178.154L189.513 178.147Z" fill="#F2E5B8"/>
<path d="M235.574 128.26C235.546 128.09 235.52 127.928 235.485 127.76C236.075 127.664 236.664 127.568 237.733 127.394C236.833 128.184 236.175 128.139 235.574 128.26Z" fill="#E9D183"/>
<path d="M205.618 133.567C205.82 133.837 206.016 134.108 206.22 134.385C205.755 134.461 205.221 134.525 205.025 134.02C204.895 133.685 205.322 133.608 205.618 133.567Z" fill="#EBD183"/>
<path d="M164.132 182.378C164.319 182.642 164.498 182.901 164.684 183.166C164.235 183.239 163.716 183.308 163.541 182.792C163.432 182.446 163.839 182.388 164.132 182.378Z" fill="#F0DCA1"/>
<path d="M446.963 380.233C450.128 380.056 453.187 379.402 456.062 378.043C460.645 375.881 463.646 372.178 465.943 367.808C466.151 367.416 466.143 366.894 466.844 366.633C466.952 367.35 467.116 368.045 467.144 368.743C467.363 374.238 470.108 378.286 474.364 381.48C475.161 382.078 475.994 382.628 476.81 383.198C476.923 383.516 477.028 383.833 477.14 384.159C474.96 384.622 472.867 385.324 470.906 386.415C467.237 388.467 464.86 391.505 463.821 395.574C463.493 396.855 462.931 398.086 463.151 399.861C462.26 398.661 462.498 397.685 462.36 396.812C461.715 392.697 460.298 388.969 457.185 386.068C454.91 383.944 452.264 382.461 449.296 381.535C448.494 381.284 447.705 381.004 446.904 380.746C446.929 380.576 446.952 380.413 446.969 380.242L446.963 380.233Z" fill="#E7BA74"/>
<path d="M531.341 350.021C527.16 350.761 523.72 352.635 521.468 356.378C520.268 358.371 519.843 360.589 519.539 363.224C519.304 362.496 519.104 362.157 519.087 361.8C518.663 354.269 514.478 349.795 507.553 347.529C507.439 347.218 507.332 346.916 507.226 346.606C511.15 346.236 514.693 344.951 517.647 342.26C519.775 340.318 521.288 337.94 522.57 334.955C522.747 335.72 522.916 336.167 522.935 336.615C523.091 342.026 525.84 345.832 530.287 348.594C530.551 348.752 530.796 348.931 531.059 349.097C531.158 349.406 531.251 349.706 531.35 350.015L531.341 350.021Z" fill="#E7BA74"/>
<path d="M507.217 346.613C507.323 346.922 507.438 347.226 507.544 347.535C506.946 347.449 506.339 347.362 505.742 347.268C505.781 346.994 505.821 346.721 505.86 346.447C506.312 346.505 506.764 346.563 507.217 346.613Z" fill="#EBD58D"/>
<path d="M505.86 346.447C505.82 346.721 505.781 346.994 505.742 347.268C505.526 347.244 505.292 347.248 505.089 347.189C504.806 347.11 504.497 346.953 504.655 346.591C504.72 346.449 505.011 346.37 505.203 346.345C505.417 346.323 505.639 346.408 505.854 346.439L505.86 346.447Z" fill="#F2E5B8"/>
<path d="M446.962 380.235C446.938 380.405 446.914 380.568 446.897 380.739C446.306 380.653 445.714 380.568 444.642 380.414C445.738 379.93 446.353 380.17 446.962 380.235Z" fill="#E9D183"/>
<path d="M477.133 384.15C477.02 383.832 476.915 383.515 476.803 383.19C477.269 383.257 477.798 383.356 477.833 383.896C477.857 384.255 477.427 384.2 477.133 384.15Z" fill="#EBD183"/>
<path d="M531.341 350.021C531.242 349.712 531.149 349.412 531.05 349.104C531.501 349.169 532.016 349.258 532.029 349.803C532.029 350.166 531.624 350.1 531.341 350.021Z" fill="#F0DCA1"/>
<defs>
<filter id="filter0_f_65_637" x="-37" y="-123" width="779" height="779" filterUnits="userSpaceOnUse" color-interpolation-filters="sRGB">
<feFlood flood-opacity="0" result="BackgroundImageFix"/>
<feBlend mode="normal" in="SourceGraphic" in2="BackgroundImageFix" result="shape"/>
<feGaussianBlur stdDeviation="100" result="effect1_foregroundBlur_65_637"/>
</filter>
</defs>
</svg>
