<svg width="24" height="24" viewBox="0 0 24 24" fill="none" xmlns="http://www.w3.org/2000/svg">
<path d="M17.8799 4.76367C17.1503 4.76367 16.5632 5.35073 16.5632 6.08036C16.5632 6.80999 17.1503 7.39705 17.8799 7.39705C18.6095 7.39705 19.1966 6.80999 19.1966 6.08036C19.1966 5.35073 18.6095 4.76367 17.8799 4.76367Z" fill="white"/>
<path d="M12.0178 6.44922C8.96509 6.44922 6.48267 8.93164 6.48267 11.9843C6.48267 15.037 8.96509 17.5195 12.0178 17.5195C15.0705 17.5195 17.5529 15.037 17.5529 11.9843C17.5529 8.93164 15.0705 6.44922 12.0178 6.44922ZM12.0178 15.5318C10.0637 15.5318 8.47027 13.9384 8.47027 11.9843C8.47027 10.0303 10.0637 8.43683 12.0178 8.43683C13.9719 8.43683 15.5653 10.0303 15.5653 11.9843C15.5653 13.9384 13.9719 15.5318 12.0178 15.5318Z" fill="white"/>
<path d="M16.4123 23.223H7.43867C3.71504 23.223 0.6875 20.1955 0.6875 16.4718V7.49824C0.6875 3.77461 3.71504 0.74707 7.43867 0.74707H16.4123C20.1359 0.74707 23.1634 3.77461 23.1634 7.49824V16.4718C23.1634 20.1955 20.1359 23.223 16.4123 23.223ZM7.43867 2.86048C4.88077 2.86048 2.80091 4.94034 2.80091 7.49824V16.4718C2.80091 19.0297 4.88077 21.1096 7.43867 21.1096H16.4123C18.9702 21.1096 21.05 19.0297 21.05 16.4718V7.49824C21.05 4.94034 18.9702 2.86048 16.4123 2.86048H7.43867Z" fill="white"/>
</svg>
