<svg width="470" height="317" viewBox="0 0 470 317" fill="none" xmlns="http://www.w3.org/2000/svg">
<path d="M233.667 0L234.432 0.382441L229.46 9.56103L213.397 39.3914L211.868 41.6861L172.094 63.1028L170.946 63.8677L177.066 67.3096L206.896 83.3721L212.25 86.4317L218.752 98.6698L223.341 107.083L229.078 117.792L233.667 126.206L234.049 127.735L232.137 126.97L222.576 121.616L216.075 117.792L196.188 106.319L187.009 100.964L157.179 83.7546L148 78.4004V49.7173L151.442 47.4227L161.003 42.0685L167.504 38.2441L177.448 32.5075L186.627 27.1533L206.513 15.6801L215.692 10.3259L225.636 4.58929L233.667 0Z" fill="#FEFEFE"/>
<path d="M234.814 0L236.727 0.764882L245.523 5.73662L254.701 11.0908L264.645 16.8274L273.823 22.1816L293.71 33.6548L302.889 39.009L312.832 44.7456L320.864 49.3349V78.4004L314.362 82.2248L274.588 105.171L265.41 110.525L235.579 127.735H234.814L235.579 125.823L240.169 117.027L244.758 108.613L255.466 88.7263L257.761 85.6668L267.322 80.6951L275.736 76.1058L296.387 65.015L298.3 64.2501V63.4852L296.005 62.7203L285.297 56.9837L276.883 52.3944L266.175 46.6578L256.996 41.6861L252.407 33.2724L246.67 22.564L242.081 14.1503L236.344 3.44197L234.814 0.764882V0Z" fill="#FEFEFE"/>
<path d="M0.382441 187H47.4227L51.6295 188.53L54.6891 191.207L56.6013 194.649L57.3662 197.708V233.275L56.6013 236.717L54.3066 240.159L51.2471 242.836L48.1876 243.984H0V187.382L0.382441 187Z" fill="#FEFEFE"/>
<path d="M66.1621 187H118.939V199.238H78.7827V209.564H118.939V221.802H78.7827V231.746H118.939V243.984H66.1621V187Z" fill="#FEFEFE"/>
<path d="M283.771 195.796H322.015L322.78 196.943V234.04L321.633 235.57H284.154L283.006 234.805V196.561L283.771 195.796Z" fill="#231C9C"/>
<path d="M283.007 187H322.78L326.605 188.53L329.282 190.824L331.194 194.649V236.335L329.664 239.777L326.987 242.454L323.545 243.984H282.242L279.182 242.836L276.505 240.542L274.593 237.1L274.21 235.188V195.796L275.74 191.589L278.8 188.53L283.007 187ZM283.771 195.796L283.007 196.561V234.805L284.154 235.57H321.633L322.78 234.04V196.943L322.016 195.796H283.771Z" fill="#FEFEFE"/>
<path d="M208.431 187H218.757L222.581 191.207L226.023 195.414L234.437 205.357L237.879 209.564L242.468 214.918L245.91 219.125L250.499 224.479L253.941 228.686L256.618 231.746L257.001 187H265.414V243.984H255.088L250.117 238.247L246.675 234.04L242.085 228.686L238.644 224.479L234.054 219.125L230.612 214.918L226.023 209.564L222.581 205.357L217.992 200.003L217.609 199.238L217.227 243.984H208.431V187Z" fill="#FEFEFE"/>
<path d="M125.441 187H139.591L145.71 197.708L162.92 227.539V228.304H163.685L164.45 226.391L168.274 219.507L173.628 210.329L179.748 199.621L185.102 190.442L187.014 187H201.164L200.399 189.295L195.045 198.473L189.309 208.417L183.954 217.595L172.481 237.482L168.657 243.984H157.948L152.212 234.04L146.858 224.862L135.384 204.975L130.03 195.796L125.441 187.765V187Z" fill="#FEFEFE"/>
<path d="M336.166 187H346.109L351.464 196.179L357.583 206.887L362.937 216.066L368.674 226.009L372.88 233.275V234.04L374.028 232.893L386.266 211.476L391.62 202.298L396.974 192.737L400.416 187H410.36L409.595 188.912L403.476 199.621L397.739 209.564L392.385 218.743L380.912 238.63L377.852 243.984H369.056L366.761 240.542L361.79 231.746L356.435 222.567L350.699 212.624L345.345 203.445L339.608 193.501L336.166 187.765V187Z" fill="#FEFEFE"/>
<path d="M427.951 187H436.748L442.867 197.708L448.221 206.887L465.431 236.717L469.255 243.219V243.984H459.312L447.074 222.567L441.337 212.624L435.218 201.915L432.541 197.326L431.393 198.856L414.184 228.686L408.829 237.865L405.387 243.984H395.062L398.121 238.63L403.475 229.069L407.3 222.567L413.036 212.624L418.39 203.445L424.127 193.501L427.951 187Z" fill="#FEFEFE"/>
<mask id="mask0_7_5" style="mask-type:alpha" maskUnits="userSpaceOnUse" x="0" y="187" width="58" height="57">
<path d="M0.382441 187H47.4227L51.6295 188.53L54.6891 191.207L56.6013 194.649L57.3662 197.708V233.275L56.6013 236.717L54.3066 240.159L51.2471 242.836L48.1876 243.984H0V187.382L0.382441 187Z" fill="#FEFEFE"/>
</mask>
<g mask="url(#mask0_7_5)">
<path d="M12.6205 199.238H44.7455V231.746H12.238V199.621L12.6205 199.238Z" fill="#211A92"/>
</g>
<path d="M271.533 292.172H274.593L276.887 293.319L278.8 295.614L279.182 296.761V302.498L278.8 304.028L445.926 303.645L446.309 292.172H450.133V302.88L448.986 305.557L447.456 307.087L446.309 307.47H252.794L250.116 305.175L249.352 303.645V296.761H253.176L253.558 303.263L253.941 303.645L267.326 304.028V296.379L268.474 294.084L270.386 292.554L271.533 292.172Z" fill="#FEFEFE"/>
<path d="M125.823 292.172H133.09L135.002 293.319L136.532 295.231L136.914 296.379V304.028L237.114 303.645L237.496 292.172H241.321V302.88L240.173 305.557L238.643 307.087L237.496 307.47H136.914V310.529L135.767 312.824L133.855 314.353L133.09 314.736H125.441V310.911L132.325 310.529L132.707 310.147L133.09 307.47H125.823L123.529 305.94L122.381 303.645V295.996L123.911 293.319L125.823 292.172Z" fill="#FEFEFE"/>
<path d="M0.382812 283.375H3.82478L4.20722 303.262L4.97211 303.644L106.319 304.027V296.76L107.466 294.083L109.379 292.554L110.143 292.171H114.35L116.645 293.701L117.792 295.231V305.174L116.262 307.086L115.498 307.469H3.82478L1.91258 306.321L0.382812 304.409V283.375Z" fill="#FEFEFE"/>
<path d="M457.399 292.172H465.431L467.725 293.319L469.637 295.614V304.028L468.108 306.322L466.196 307.47H454.34V304.028L465.048 303.645L465.431 303.263V296.379L457.399 295.996L457.017 294.467V292.554L457.399 292.172Z" fill="#FEFEFE"/>
<path d="M126.971 295.614H131.942L133.09 296.762V304.028H126.971L125.823 302.498V297.144L126.971 295.614Z" fill="#221B95"/>
<path d="M110.526 295.996H113.585L114.35 297.143V302.88L113.203 304.027H110.908L110.143 303.262V296.379L110.526 295.996Z" fill="#231B97"/>
<path d="M271.916 295.996H274.593L275.358 297.143V302.88L274.21 304.027H271.916L271.151 303.262V296.761L271.916 295.996Z" fill="#231B97"/>
<path d="M272.298 283.375L274.975 283.757L275.358 285.67L274.593 287.199H271.916L271.151 286.052L271.533 283.757L272.298 283.375Z" fill="#FEFEFE"/>
<path d="M439.425 312.823L442.102 313.206L442.485 315.883L441.72 316.648H439.043L438.66 316.265V313.588L439.425 312.823Z" fill="#FEFEFE"/>
<path d="M238.261 283.375H240.556L241.321 284.14V286.435L240.556 287.199H238.261L237.496 286.435V284.14L238.261 283.375Z" fill="#FEFEFE"/>
<path d="M110.908 283.375H113.203L113.967 284.14V286.435L113.203 287.199H110.908L110.143 286.435V284.14L110.908 283.375Z" fill="#FEFEFE"/>
<path d="M446.309 312.823H448.221L448.986 313.588V316.265L448.604 316.648H445.927L445.162 315.5L445.544 313.206L446.309 312.823Z" fill="#FEFEFE"/>
</svg>
