<svg width="697" height="130" viewBox="0 0 697 130" fill="none" xmlns="http://www.w3.org/2000/svg">
<path d="M85.6668 0.382812L86.4317 0.765254L81.46 9.94384L65.3974 39.7742L63.8677 42.0689L24.0938 63.4856L22.9465 64.2505L29.0655 67.6924L58.8959 83.755L64.2501 86.8145L70.7516 99.0526L75.3409 107.466L81.0775 118.175L85.6668 126.588L86.0492 128.118L84.137 127.353L74.576 121.999L68.0745 118.175L48.1876 106.701L39.009 101.347L9.17859 84.1374L0 78.7832V50.1001L3.44197 47.8055L13.003 42.4513L19.5045 38.6269L29.448 32.8903L38.6266 27.5361L58.5135 16.0629L67.6921 10.7087L77.6355 4.97211L85.6668 0.382812Z" fill="#FEFEFE"/>
<path d="M86.8145 0.382812L88.7267 1.14769L97.5228 6.11943L106.701 11.4736L116.645 17.2102L125.823 22.5644L145.71 34.0376L154.889 39.3918L164.832 45.1284L172.864 49.7177V78.7832L166.362 82.6076L126.588 105.554L117.41 110.908L87.5793 128.118H86.8145L87.5793 126.206L92.1686 117.41L96.7579 108.996L107.466 89.1091L109.761 86.0496L119.322 81.0779L127.736 76.4886L148.387 65.3978L150.3 64.6329V63.868L148.005 63.1031L137.297 57.3665L128.883 52.7772L118.175 47.0406L108.996 42.0689L104.407 33.6552L98.6701 22.9468L94.0808 14.5331L88.3442 3.82478L86.8145 1.14769V0.382812Z" fill="#FEFEFE"/>
<path d="M226.788 0H273.828L278.035 1.52976L281.094 4.20685L283.007 7.64882L283.771 10.7083V46.2754L283.007 49.7173L280.712 53.1593L277.652 55.8364L274.593 56.9837H226.405V0.382441L226.788 0Z" fill="#FEFEFE"/>
<path d="M292.567 0H345.344V12.2381H305.188V22.564H345.344V34.8021H305.188V44.7456H345.344V56.9837H292.567V0Z" fill="#FEFEFE"/>
<path d="M510.176 8.7959H548.42L549.185 9.94322V47.04L548.038 48.5698H510.558L509.411 47.8049V9.56078L510.176 8.7959Z" fill="#231C9C"/>
<path d="M509.411 0H549.185L553.01 1.52976L555.687 3.82441L557.599 7.64882V49.3349L556.069 52.7769L553.392 55.454L549.95 56.9837H508.646L505.587 55.8364L502.91 53.5417L500.998 50.0998L500.615 48.1876V8.79614L502.145 4.58929L505.205 1.52976L509.411 0ZM510.176 8.79614L509.411 9.56103V47.8051L510.559 48.57H548.038L549.185 47.0402V9.94347L548.42 8.79614H510.176Z" fill="#FEFEFE"/>
<path d="M434.835 0H445.161L448.986 4.20685L452.428 8.4137L460.841 18.3572L464.283 22.564L468.873 27.9182L472.315 32.125L476.904 37.4792L480.346 41.6861L483.023 44.7456L483.405 0H491.819V56.9837H481.493L476.522 51.2471L473.08 47.0402L468.49 41.6861L465.048 37.4792L460.459 32.125L457.017 27.9182L452.428 22.564L448.986 18.3572L444.396 13.003L444.014 12.2381L443.632 56.9837H434.835V0Z" fill="#FEFEFE"/>
<path d="M351.846 0H365.996L372.115 10.7083L389.325 40.5387V41.3036H390.09L390.855 39.3914L394.679 32.5075L400.033 23.3289L406.152 12.6206L411.507 3.44197L413.419 0H427.569L426.804 2.29465L421.45 11.4732L415.713 21.4167L410.359 30.5953L398.886 50.4822L395.062 56.9837H384.353L378.617 47.0402L373.262 37.8617L361.789 17.9747L356.435 8.79614L351.846 0.764882V0Z" fill="#FEFEFE"/>
<path d="M562.571 0H572.514L577.868 9.17859L583.987 19.8869L589.342 29.0655L595.078 39.009L599.285 46.2754V47.0402L600.432 45.8929L612.671 24.4762L618.025 15.2976L623.379 5.73662L626.821 0H636.764L635.999 1.91221L629.88 12.6206L624.144 22.564L618.79 31.7426L607.316 51.6295L604.257 56.9837H595.461L593.166 53.5417L588.194 44.7456L582.84 35.567L577.104 25.6236L571.749 16.445L566.013 6.5015L562.571 0.764882V0Z" fill="#FEFEFE"/>
<path d="M654.357 0H663.153L669.272 10.7083L674.626 19.8869L691.836 49.7173L695.66 56.2188V56.9837H685.717L673.479 35.567L667.742 25.6236L661.623 14.9152L658.946 10.3259L657.799 11.8557L640.589 41.6861L635.235 50.8647L631.793 56.9837H621.467L624.526 51.6295L629.88 42.0685L633.705 35.567L639.442 25.6236L644.796 16.445L650.532 6.5015L654.357 0Z" fill="#FEFEFE"/>
<mask id="mask0_7_5" style="mask-type:alpha" maskUnits="userSpaceOnUse" x="226" y="0" width="58" height="57">
<path d="M226.788 0H273.828L278.035 1.52976L281.094 4.20685L283.007 7.64882L283.771 10.7083V46.2754L283.007 49.7173L280.712 53.1593L277.652 55.8364L274.593 56.9837H226.405V0.382441L226.788 0Z" fill="#FEFEFE"/>
</mask>
<g mask="url(#mask0_7_5)">
<path d="M239.026 12.2383H271.151V44.7458H238.643V12.6207L239.026 12.2383Z" fill="#211A92"/>
</g>
<path d="M497.938 105.172H500.998L503.293 106.319L505.205 108.614L505.587 109.761V115.498L505.205 117.028L672.332 116.645L672.714 105.172H676.538V115.88L675.391 118.557L673.861 120.087L672.714 120.47H479.199L476.522 118.175L475.757 116.645V109.761H479.581L479.964 116.263L480.346 116.645L493.732 117.028V109.379L494.879 107.084L496.791 105.554L497.938 105.172Z" fill="#FEFEFE"/>
<path d="M352.228 105.172H359.494L361.407 106.319L362.936 108.231L363.319 109.379V117.028L463.518 116.645L463.901 105.172H467.725V115.88L466.578 118.557L465.048 120.087L463.901 120.47H363.319V123.529L362.172 125.824L360.259 127.353L359.494 127.736H351.846V123.911L358.73 123.529L359.112 123.147L359.494 120.47H352.228L349.933 118.94L348.786 116.645V108.996L350.316 106.319L352.228 105.172Z" fill="#FEFEFE"/>
<path d="M226.788 96.375H230.23L230.612 116.262L231.377 116.644L332.724 117.027V109.76L333.871 107.083L335.783 105.554L336.548 105.171H340.755L343.05 106.701L344.197 108.231V118.174L342.667 120.086L341.902 120.469H230.23L228.317 119.321L226.788 117.409V96.375Z" fill="#FEFEFE"/>
<path d="M683.805 105.172H691.836L694.131 106.319L696.043 108.614V117.028L694.513 119.322L692.601 120.47H680.745V117.028L691.453 116.645L691.836 116.263V109.379L683.805 108.996L683.422 107.467V105.554L683.805 105.172Z" fill="#FEFEFE"/>
<path d="M353.376 108.614H358.348L359.495 109.762V117.028H353.376L352.229 115.498V110.144L353.376 108.614Z" fill="#221B95"/>
<path d="M336.93 108.996H339.99L340.755 110.143V115.88L339.607 117.027H337.313L336.548 116.262V109.379L336.93 108.996Z" fill="#231B97"/>
<path d="M498.321 108.996H500.998L501.763 110.143V115.88L500.615 117.027H498.321L497.556 116.262V109.761L498.321 108.996Z" fill="#231B97"/>
<path d="M498.703 96.375L501.38 96.7574L501.763 98.6696L500.998 100.199H498.321L497.556 99.0521L497.938 96.7574L498.703 96.375Z" fill="#FEFEFE"/>
<path d="M665.83 125.823L668.507 126.206L668.889 128.883L668.124 129.648H665.447L665.065 129.265V126.588L665.83 125.823Z" fill="#FEFEFE"/>
<path d="M464.666 96.375H466.961L467.726 97.1399V99.4345L466.961 100.199H464.666L463.901 99.4345V97.1399L464.666 96.375Z" fill="#FEFEFE"/>
<path d="M337.313 96.375H339.607L340.372 97.1399V99.4345L339.607 100.199H337.313L336.548 99.4345V97.1399L337.313 96.375Z" fill="#FEFEFE"/>
<path d="M672.714 125.823H674.626L675.391 126.588V129.265L675.008 129.648H672.331L671.566 128.5L671.949 126.206L672.714 125.823Z" fill="#FEFEFE"/>
</svg>
